<?xml version="1.0" encoding="utf-8"?>
<!-- Generator: Adobe Illustrator 23.0.4, SVG Export Plug-In . SVG Version: 6.00 Build 0)  -->
<svg version="1.1" id="Layer_1" xmlns="http://www.w3.org/2000/svg" xmlns:xlink="http://www.w3.org/1999/xlink" x="0px" y="0px"
	 viewBox="0 0 24 24" style="enable-background:new 0 0 24 24;" xml:space="preserve">
<style type="text/css">
	.st0{fill:#FFFFFF;}
</style>
<g>
	<title>shield check 1</title>
	<g>
		<path class="st0" d="M12,24c-0.5,0-0.9-0.1-1.3-0.2l-1-0.4c-4.9-1.9-8.1-6.6-8.1-11.8V3.9c0-0.9,0.5-1.7,1.3-2C5.7,0.6,8.8,0,12,0
			c3.2,0,6.3,0.6,9.2,1.9C22,2.2,22.5,3,22.5,3.9v7.6c0,5.2-3.3,9.9-8.1,11.8l-1,0.4C12.9,23.9,12.5,24,12,24z M11.8,1.5
			c-2.9,0-5.7,0.6-8.4,1.7C3.2,3.4,3,3.6,3,3.9c0,0,0,0,0,0v7.6c0,4.6,2.9,8.8,7.2,10.4l1,0.4c0.5,0.2,1.1,0.2,1.6,0l1-0.4
			c4.3-1.6,7.2-5.8,7.2-10.4V3.9c0-0.3-0.2-0.6-0.4-0.7C17.9,2.1,15,1.5,12,1.5C11.9,1.5,11.9,1.5,11.8,1.5z"/>
	</g>
	<g>
		<path class="st0" d="M12,16.5c-0.3,0-0.6,0-0.9-0.1c-1.6-0.2-3-1.1-3.9-2.3c-1-1.3-1.4-2.9-1.1-4.4C6.5,6.7,9,4.5,12,4.5h0
			c0.4,0,0.7,0.3,0.8,0.7S12.4,6,12,6C9.8,6,7.9,7.7,7.5,9.9c-0.4,2.5,1.4,4.7,3.8,5.1c2.5,0.4,4.7-1.4,5.1-3.8
			c0.1-0.4,0.4-0.7,0.8-0.6c0.4,0.1,0.7,0.4,0.6,0.8c-0.2,1.6-1.1,3-2.3,3.9C14.5,16.1,13.3,16.5,12,16.5z"/>
	</g>
	<g>
		<path class="st0" d="M12,12.3c-0.4,0-0.7-0.1-1-0.4l-1.5-1.5c-0.3-0.3-0.3-0.8,0-1.1c0.3-0.3,0.8-0.3,1.1,0l1.4,1.4L16.7,6
			c0.3-0.3,0.8-0.3,1.1,0s0.3,0.8,0,1.1L13,11.9C12.7,12.2,12.4,12.3,12,12.3z"/>
	</g>
</g>
</svg>
